<svg height="2222" width="720" xmlns="http://www.w3.org/2000/svg">
<rect height="2222" fill="#555" width="720"></rect>
<text fill="#7f7" font-family="Courier New" font-size="12" xml:space="preserve">
<tspan x="10" y="26"></tspan>
<tspan x="10" y="42">&gt; npmdoc-jade@0.0.1 test /home/travis/build/npmdoc/node-npmdoc-jade</tspan>
<tspan x="10" y="58">&gt; (set -e; export PORT=$(utility2 shServerPortRandom); utility2 test test.js)</tspan>
<tspan x="10" y="74"></tspan>
<tspan x="10" y="90"></tspan>
<tspan x="10" y="106">[MODE_BUILD=npmTest] - 2017-03-25T11:36:02Z - npm-testing /home/travis/build/npmdoc/node-npmdoc-\</tspan>
<tspan x="10" y="122">jade</tspan>
<tspan x="10" y="138"></tspan>
<tspan x="10" y="154"></tspan>
<tspan x="10" y="170">covering $ /home/travis/.nvm/versions/node/v7.7.4/bin/node /home/travis/build/npmdoc/node-npmdoc\</tspan>
<tspan x="10" y="186">-jade/test.js</tspan>
<tspan x="10" y="202">merging file:///home/travis/build/npmdoc/node-npmdoc-jade/tmp/build/test-report.json to test-rep\</tspan>
<tspan x="10" y="218">ort</tspan>
<tspan x="10" y="234">&gt; server listening on http-port 57860</tspan>
<tspan x="10" y="250">created apidoc file:///home/travis/build/npmdoc/node-npmdoc-jade/tmp/build/apidoc.html</tspan>
<tspan x="10" y="266"></tspan>
<tspan x="10" y="282"></tspan>
<tspan x="10" y="298">browserTest - created electron entry-page /home/travis/build/npmdoc/node-npmdoc-jade/tmp/electro\</tspan>
<tspan x="10" y="314">n.15b05407b510.796538f392d91.html</tspan>
<tspan x="10" y="330"></tspan>
<tspan x="10" y="346">Xlib:  extension "RANDR" missing on display ":99.0".</tspan>
<tspan x="10" y="362">[node test-case 1 of 6 passed] - testCase_buildLib_default</tspan>
<tspan x="10" y="378">[node test-case 2 of 6 passed] - testCase_buildReadme_default</tspan>
<tspan x="10" y="394">[node test-case 3 of 6 passed] - testCase_buildTest_default</tspan>
<tspan x="10" y="410"></tspan>
<tspan x="10" y="426">browserTest - created electron entry-page /home/travis/build/npmdoc/node-npmdoc-jade/tmp/electro\</tspan>
<tspan x="10" y="442">n.15b05407c070.5f41c5d94073c.html</tspan>
<tspan x="10" y="458"></tspan>
<tspan x="10" y="474">(node:5054) DeprecationWarning: node --debug is deprecated. Please use node --inspect instead.</tspan>
<tspan x="10" y="490">Xlib:  extension "RANDR" missing on display ":99.0".</tspan>
<tspan x="10" y="506">&gt; server listening on http-port 61495</tspan>
<tspan x="10" y="522"></tspan>
<tspan x="10" y="538">/home/travis/build/npmdoc/node-npmdoc-jade/node_modules/utility2/lib.utility2.sh.html.js</tspan>
<tspan x="10" y="554"> #1 Line too long.</tspan>
<tspan x="10" y="570">    process.stdout.write('export npm_package_' + key.replace((/\W/g), '_') + '=' + JSON.stringif\</tspan>
<tspan x="10" y="586">y(value) + ';'); // Line 1445, Pos 116</tspan>
<tspan x="10" y="602"></tspan>
<tspan x="10" y="618">merging file:///home/travis/build/npmdoc/node-npmdoc-jade/tmp/build/test-report.json to test-rep\</tspan>
<tspan x="10" y="634">ort</tspan>
<tspan x="10" y="650">Xlib:  extension "RANDR" missing on display ":99.0".</tspan>
<tspan x="10" y="666"></tspan>
<tspan x="10" y="682">/home/travis/build/npmdoc/node-npmdoc-jade/node_modules/utility2/lib.utility2.sh.html.js</tspan>
<tspan x="10" y="698"> #1 Line too long.</tspan>
<tspan x="10" y="714">    process.stdout.write('export npm_package_' + key.replace((/\W/g), '_') + '=' + JSON.stringif\</tspan>
<tspan x="10" y="730">y(value) + ';'); // Line 1445, Pos 116</tspan>
<tspan x="10" y="746"></tspan>
<tspan x="10" y="762">[5068:0325/113604:WARNING:audio_manager.cc(314)] Multiple instances of AudioManager detected</tspan>
<tspan x="10" y="778">[5068:0325/113604:WARNING:audio_manager.cc(275)] Multiple instances of AudioManager detected</tspan>
<tspan x="10" y="794">[5111:0325/113604:ERROR:sandbox_linux.cc(343)] InitializeSandbox() called with multiple threads \</tspan>
<tspan x="10" y="810">in process gpu-process. </tspan>
<tspan x="10" y="826">merging file:///home/travis/build/npmdoc/node-npmdoc-jade/tmp/build/test-report.json to test-rep\</tspan>
<tspan x="10" y="842">ort</tspan>
<tspan x="10" y="858">Xlib:  extension "RANDR" missing on display ":99.0".</tspan>
<tspan x="10" y="874">[5089:0325/113604:WARNING:audio_manager.cc(314)] Multiple instances of AudioManager detected</tspan>
<tspan x="10" y="890">[5089:0325/113604:WARNING:audio_manager.cc(275)] Multiple instances of AudioManager detected</tspan>
<tspan x="10" y="906">[5138:0325/113605:ERROR:sandbox_linux.cc(343)] InitializeSandbox() called with multiple threads \</tspan>
<tspan x="10" y="922">in process gpu-process. </tspan>
<tspan x="10" y="938">[5089:0325/113605:ERROR:browser_gpu_channel_host_factory.cc(131)] Failed to create channel.</tspan>
<tspan x="10" y="954"></tspan>
<tspan x="10" y="970">browserTest - opened url file:///home/travis/build/npmdoc/node-npmdoc-jade/tmp/build/apidoc.html</tspan>
<tspan x="10" y="986"></tspan>
<tspan x="10" y="1002"></tspan>
<tspan x="10" y="1018">browserTest - opened url http://127.0.0.1:57860?modeTest=1</tspan>
<tspan x="10" y="1034"></tspan>
<tspan x="10" y="1050">[5089:0325/113607:INFO:CONSOLE(203)] "----------|-----------|-----------|-----------|-----------\</tspan>
<tspan x="10" y="1066">|</tspan>
<tspan x="10" y="1082">File      |   % Stmts |% Branches |   % Funcs |   % Lines |</tspan>
<tspan x="10" y="1098">----------|-----------|-----------|-----------|-----------|</tspan>
<tspan x="10" y="1114">----------|-----------|-----------|-----------|-----------|</tspan>
<tspan x="10" y="1130">All files |       100 |       100 |       100 |       100 |</tspan>
<tspan x="10" y="1146">----------|-----------|-----------|-----------|-----------|</tspan>
<tspan x="10" y="1162">", source: file:///home/travis/build/npmdoc/node-npmdoc-jade/tmp/electron.15b05407c070.5f41c5d94\</tspan>
<tspan x="10" y="1178">073c.html (203)</tspan>
<tspan x="10" y="1194">[5089:0325/113607:INFO:CONSOLE(203)] "created coverage file:///tmp/build/coverage.html/index.htm\</tspan>
<tspan x="10" y="1210">l", source: file:///home/travis/build/npmdoc/node-npmdoc-jade/tmp/electron.15b05407c070.5f41c5d9\</tspan>
<tspan x="10" y="1226">4073c.html (203)</tspan>
<tspan x="10" y="1242">[node test-case 4 of 6 passed] - testCase_buildApp_default</tspan>
<tspan x="10" y="1258"></tspan>
<tspan x="10" y="1274">browserTest - created screen-capture file:///home/travis/build/npmdoc/node-npmdoc-jade/tmp/build\</tspan>
<tspan x="10" y="1290">/screen-capture.npmTest.browser._2Fhome_2Ftravis_2Fbuild_2Fnpmdoc_2Fnode-npmdoc-jade_2Ftmp_2Fbui\</tspan>
<tspan x="10" y="1306">ld_2Fapidoc.html.png</tspan>
<tspan x="10" y="1322"></tspan>
<tspan x="10" y="1338"></tspan>
<tspan x="10" y="1354">browserTest - exit-code 0 - file:///home/travis/build/npmdoc/node-npmdoc-jade/tmp/build/apidoc.h\</tspan>
<tspan x="10" y="1370">tml</tspan>
<tspan x="10" y="1386"></tspan>
<tspan x="10" y="1402">[node test-case 5 of 6 passed] - testCase_buildApidoc_default</tspan>
<tspan x="10" y="1418"></tspan>
<tspan x="10" y="1434">browserTest - created screen-capture file:///home/travis/build/npmdoc/node-npmdoc-jade/tmp/build\</tspan>
<tspan x="10" y="1450">/screen-capture.npmTest.browser..png</tspan>
<tspan x="10" y="1466"></tspan>
<tspan x="10" y="1482"></tspan>
<tspan x="10" y="1498">browserTest - exit-code 0 - http://127.0.0.1:57860?modeTest=1</tspan>
<tspan x="10" y="1514"></tspan>
<tspan x="10" y="1530"></tspan>
<tspan x="10" y="1546">browserTest - merged coverage from /home/travis/build/npmdoc/node-npmdoc-jade/tmp/coverage.npmTe\</tspan>
<tspan x="10" y="1562">st.browser.%2F.json</tspan>
<tspan x="10" y="1578"></tspan>
<tspan x="10" y="1594"></tspan>
<tspan x="10" y="1610">browserTest - merging test-report from /home/travis/build/npmdoc/node-npmdoc-jade/tmp/test-repor\</tspan>
<tspan x="10" y="1626">t.npmTest.browser.%2F.json</tspan>
<tspan x="10" y="1642"></tspan>
<tspan x="10" y="1658">[node test-case 6 of 6 passed] - testCase_webpage_default</tspan>
<tspan x="10" y="1674">-------------------------|-----------|-----------|-----------|-----------|</tspan>
<tspan x="10" y="1690">File                     |   % Stmts |% Branches |   % Funcs |   % Lines |</tspan>
<tspan x="10" y="1706">-------------------------|-----------|-----------|-----------|-----------|</tspan>
<tspan x="10" y="1722">   node-npmdoc-jade/     |       100 |       100 |       100 |       100 |</tspan>
<tspan x="10" y="1738">      example.js         |       100 |       100 |       100 |       100 |</tspan>
<tspan x="10" y="1754">      lib.npmdoc_jade.js |       100 |       100 |       100 |       100 |</tspan>
<tspan x="10" y="1770">      test.js            |       100 |       100 |       100 |       100 |</tspan>
<tspan x="10" y="1786">-------------------------|-----------|-----------|-----------|-----------|</tspan>
<tspan x="10" y="1802">All files                |       100 |       100 |       100 |       100 |</tspan>
<tspan x="10" y="1818">-------------------------|-----------|-----------|-----------|-----------|</tspan>
<tspan x="10" y="1834"></tspan>
<tspan x="10" y="1850">created coverage file:///home/travis/build/npmdoc/node-npmdoc-jade/tmp/build/coverage.html/index\</tspan>
<tspan x="10" y="1866">.html</tspan>
<tspan x="10" y="1882"></tspan>
<tspan x="10" y="1898">/home/travis/build/npmdoc/node-npmdoc-jade/node_modules/utility2/lib.utility2.sh.html.js</tspan>
<tspan x="10" y="1914"> #1 Line too long.</tspan>
<tspan x="10" y="1930">    process.stdout.write('export npm_package_' + key.replace((/\W/g), '_') + '=' + JSON.stringif\</tspan>
<tspan x="10" y="1946">y(value) + ';'); // Line 1445, Pos 116</tspan>
<tspan x="10" y="1962"></tspan>
<tspan x="10" y="1978">merging file:///home/travis/build/npmdoc/node-npmdoc-jade/tmp/build/test-report.json to test-rep\</tspan>
<tspan x="10" y="1994">ort</tspan>
<tspan x="10" y="2010"></tspan>
<tspan x="10" y="2026">-------------------------------------------------------</tspan>
<tspan x="10" y="2042">| test-report - buildNpmdoc - node - linux v7.7.4 - 2017-03-25T11:35:52.751Z</tspan>
<tspan x="10" y="2058">|   16491 ms            0 failed        6 passed      |</tspan>
<tspan x="10" y="2074">-------------------------------------------------------</tspan>
<tspan x="10" y="2090"></tspan>
<tspan x="10" y="2106">created test-report file:///home/travis/build/npmdoc/node-npmdoc-jade/tmp/build/test-report.html</tspan>
<tspan x="10" y="2122"></tspan>
<tspan x="10" y="2138"></tspan>
<tspan x="10" y="2154">npmTest - 0 failed tests</tspan>
<tspan x="10" y="2170"></tspan>
<tspan x="10" y="2186"></tspan>
<tspan x="10" y="2202">[MODE_BUILD=npmTest] - 2017-03-25T11:36:12Z - EXIT_CODE - 0</tspan>
</text>
</svg>
