<svg height="782" width="720" xmlns="http://www.w3.org/2000/svg">
<rect height="782" fill="#555" width="720"></rect>
<text fill="#7f7" font-family="Courier New" font-size="12" xml:space="preserve">
<tspan x="10" y="26">└─┬ jade@1.11.0 </tspan>
<tspan x="10" y="42">  ├── character-parser@1.2.1 </tspan>
<tspan x="10" y="58">  ├─┬ clean-css@3.4.25 </tspan>
<tspan x="10" y="74">  │ ├─┬ commander@2.8.1 </tspan>
<tspan x="10" y="90">  │ │ └── graceful-readlink@1.0.1 </tspan>
<tspan x="10" y="106">  │ └─┬ source-map@0.4.4 </tspan>
<tspan x="10" y="122">  │   └── amdefine@1.0.1 </tspan>
<tspan x="10" y="138">  ├── commander@2.6.0 </tspan>
<tspan x="10" y="154">  ├─┬ constantinople@3.0.2 </tspan>
<tspan x="10" y="170">  │ └── acorn@2.7.0 </tspan>
<tspan x="10" y="186">  ├─┬ jstransformer@0.0.2 </tspan>
<tspan x="10" y="202">  │ ├── is-promise@2.1.0 </tspan>
<tspan x="10" y="218">  │ └─┬ promise@6.1.0 </tspan>
<tspan x="10" y="234">  │   └── asap@1.0.0 </tspan>
<tspan x="10" y="250">  ├─┬ mkdirp@0.5.1 </tspan>
<tspan x="10" y="266">  │ └── minimist@0.0.8 </tspan>
<tspan x="10" y="282">  ├─┬ transformers@2.1.0 </tspan>
<tspan x="10" y="298">  │ ├─┬ css@1.0.8 </tspan>
<tspan x="10" y="314">  │ │ ├── css-parse@1.0.4 </tspan>
<tspan x="10" y="330">  │ │ └── css-stringify@1.0.5 </tspan>
<tspan x="10" y="346">  │ ├─┬ promise@2.0.0 </tspan>
<tspan x="10" y="362">  │ │ └── is-promise@1.0.1 </tspan>
<tspan x="10" y="378">  │ └─┬ uglify-js@2.2.5 </tspan>
<tspan x="10" y="394">  │   ├─┬ optimist@0.3.7 </tspan>
<tspan x="10" y="410">  │   │ └── wordwrap@0.0.3 </tspan>
<tspan x="10" y="426">  │   └── source-map@0.1.43 </tspan>
<tspan x="10" y="442">  ├─┬ uglify-js@2.8.21 </tspan>
<tspan x="10" y="458">  │ ├── source-map@0.5.6 </tspan>
<tspan x="10" y="474">  │ ├── uglify-to-browserify@1.0.2 </tspan>
<tspan x="10" y="490">  │ └─┬ yargs@3.10.0 </tspan>
<tspan x="10" y="506">  │   ├── camelcase@1.2.1 </tspan>
<tspan x="10" y="522">  │   ├─┬ cliui@2.1.0 </tspan>
<tspan x="10" y="538">  │   │ ├─┬ center-align@0.1.3 </tspan>
<tspan x="10" y="554">  │   │ │ ├─┬ align-text@0.1.4 </tspan>
<tspan x="10" y="570">  │   │ │ │ ├─┬ kind-of@3.1.0 </tspan>
<tspan x="10" y="586">  │   │ │ │ │ └── is-buffer@1.1.5 </tspan>
<tspan x="10" y="602">  │   │ │ │ ├── longest@1.0.1 </tspan>
<tspan x="10" y="618">  │   │ │ │ └── repeat-string@1.6.1 </tspan>
<tspan x="10" y="634">  │   │ │ └── lazy-cache@1.0.4 </tspan>
<tspan x="10" y="650">  │   │ ├── right-align@0.1.3 </tspan>
<tspan x="10" y="666">  │   │ └── wordwrap@0.0.2 </tspan>
<tspan x="10" y="682">  │   ├── decamelize@1.2.0 </tspan>
<tspan x="10" y="698">  │   └── window-size@0.1.0 </tspan>
<tspan x="10" y="714">  ├── void-elements@2.0.1 </tspan>
<tspan x="10" y="730">  └─┬ with@4.0.3 </tspan>
<tspan x="10" y="746">    ├── acorn@1.2.2 </tspan>
<tspan x="10" y="762">    └── acorn-globals@1.0.9</tspan>
</text>
</svg>
